<svg id="black-sea" xmlns="http://www.w3.org/2000/svg" viewBox="0 0 64.19 11.65">
    <title>Black Sea</title>
    <path class="dot" d="M2.9,6.61a1.32,1.32,0,0,1-.41,1,1.45,1.45,0,0,1-1,.38,1.47,1.47,0,0,1-1-.4,1.37,1.37,0,0,1-.42-1A1.4,1.4,0,0,1,.44,5.5a1.5,1.5,0,0,1,1.07-.42,1.24,1.24,0,0,1,1,.46A1.69,1.69,0,0,1,2.9,6.61Z" />
    <path d="M13.65,8.19a3,3,0,0,1-.29,1.35,2.71,2.71,0,0,1-.77.94,3.29,3.29,0,0,1-1.13.55,5.4,5.4,0,0,1-1.37.2H5.72a2,2,0,0,1-.35,0A0.22,0.22,0,0,1,5.17,11a0.2,0.2,0,0,1,.22-0.17l0.48-.08a2.2,2.2,0,0,0,.5-0.14,0.43,0.43,0,0,0,.28-0.34,3.29,3.29,0,0,0,0-.45q0-.42,0-1.08c0-.44,0-0.94,0-1.5s0-1.12,0-1.7,0-1.14,0-1.69V2.35A1.31,1.31,0,0,0,6.7,1.93a0.49,0.49,0,0,0-.17-0.25,0.69,0.69,0,0,0-.29-0.12L5.83,1.5H5.69l-0.17,0L5.37,1.37a0.12,0.12,0,0,1-.07-0.1,0.2,0.2,0,0,1,.17-0.2A1.6,1.6,0,0,1,5.88,1H6.81Q7.44,1,8.06,1c0.42,0,.84-0.06,1.27-0.06a6,6,0,0,1,1.2.12,4.06,4.06,0,0,1,1.15.41,2.52,2.52,0,0,1,.86.76,2,2,0,0,1,.34,1.16,1.82,1.82,0,0,1-.49,1.31,2.91,2.91,0,0,1-1.2.75,0.92,0.92,0,0,0,.28.12l0.32,0.1a3.15,3.15,0,0,1,1.36,1A2.43,2.43,0,0,1,13.65,8.19Zm-1.47.14a2.26,2.26,0,0,0-.31-1.18,2.06,2.06,0,0,0-.61-0.68,2.78,2.78,0,0,0-.78-0.37,3.89,3.89,0,0,0-.87-0.15l-0.9,0H8.47A0.61,0.61,0,0,0,8.19,6a0.28,0.28,0,0,0-.13.28V9.13a4.93,4.93,0,0,0,0,.67,0.94,0.94,0,0,0,.32.59,1,1,0,0,0,.59.24,5.41,5.41,0,0,0,.64,0A2.53,2.53,0,0,0,11.56,10,2.34,2.34,0,0,0,12.18,8.33Zm-0.66-5a1.76,1.76,0,0,0-.58-1.43,2.21,2.21,0,0,0-1.48-.49H8.94a1.58,1.58,0,0,0-.36.06,0.88,0.88,0,0,0-.3.15,0.42,0.42,0,0,0-.15.28,2.36,2.36,0,0,0,0,.31c0,0.11,0,.21,0,0.32V5.22a0.22,0.22,0,0,0,.11.15,0.58,0.58,0,0,0,.35.08H9a4,4,0,0,0,1-.11A2.22,2.22,0,0,0,10.78,5a1.8,1.8,0,0,0,.55-0.66A2.17,2.17,0,0,0,11.53,3.35Z" />
    <path d="M18.33,11a0.18,0.18,0,0,1-.14.2H18.06a6.12,6.12,0,0,1-.65,0,6.13,6.13,0,0,0-.65,0,7.39,7.39,0,0,0-.8,0,7.4,7.4,0,0,1-.8,0l-0.21,0a0.13,0.13,0,0,1-.14-0.13,0.18,0.18,0,0,1,.08-0.2l0.27-.08a3.79,3.79,0,0,0,.45-0.16,0.58,0.58,0,0,0,.31-0.34A1.05,1.05,0,0,0,16,10c0-.11,0-0.21,0-0.29Q16,7.85,16,6t0-3.72c0-.14,0-0.29,0-0.46a0.68,0.68,0,0,0-.17-0.41,0.67,0.67,0,0,0-.16-0.11l-0.21-.11-0.19-.11A0.15,0.15,0,0,1,15.18,1V0.92a0,0,0,0,1,0,0l0.52-.16,0.6-.22,0.5-.21L17,0.18l0.08,0.06c0,0.13,0,.26,0,0.38s0,0.25,0,.38q0,2.3,0,4.54t0,4.54a0.59,0.59,0,0,0,.25.58,1.91,1.91,0,0,0,.62.16,0.06,0.06,0,0,0,.06,0h0.06A0.19,0.19,0,0,1,18.33,11Z" />
    <path d="M25.19,10.16l0,0.13a1.26,1.26,0,0,1-.48.72,1.34,1.34,0,0,1-.83.27A0.94,0.94,0,0,1,23.13,11a1.71,1.71,0,0,1-.38-0.71,2.39,2.39,0,0,1-.38.41,3.44,3.44,0,0,1-.51.36,2.79,2.79,0,0,1-.58.25,2,2,0,0,1-.58.09,1.13,1.13,0,0,1-1-.41,1.79,1.79,0,0,1-.29-1,1.06,1.06,0,0,1,.16-0.57A2,2,0,0,1,20,8.89a3.07,3.07,0,0,1,.53-0.36A5,5,0,0,1,21,8.27L21.93,8q0.4-.13.9-0.26V6.62a1.8,1.8,0,0,0-.22-0.94,0.91,0.91,0,0,0-.85-0.36,1.33,1.33,0,0,0-.67.15,1.29,1.29,0,0,0-.6.75l-0.08.29a0.72,0.72,0,0,1-.29.38,0.85,0.85,0,0,1-.49.15,0.16,0.16,0,0,1-.18-0.13,1.19,1.19,0,0,1,0-.24A1.13,1.13,0,0,1,19.7,6a3.7,3.7,0,0,1,.69-0.66,3.86,3.86,0,0,1,.88-0.5,2.3,2.3,0,0,1,.87-0.2l0.25,0,0.3,0L23,4.75,23.2,4.83a1,1,0,0,1,.57.62,3.09,3.09,0,0,1,.11.86q0,0.53,0,1.13c0,0.4,0,.77,0,1.13,0,0.08,0,.21,0,0.37s0,0.33,0,.5,0,0.34,0,.49a0.74,0.74,0,0,0,.08.32,0.29,0.29,0,0,0,.17.13,0.74,0.74,0,0,0,.22,0,0.57,0.57,0,0,0,.25,0,0.72,0.72,0,0,0,.17-0.11l0.13-.12A0.25,0.25,0,0,1,25,10.07C25.13,10,25.19,10.07,25.19,10.16Zm-2.36-1.8a1.36,1.36,0,0,0,0-.18l-0.29.08-0.34.11-0.34.12-0.29.11a2.33,2.33,0,0,0-.69.41,0.87,0.87,0,0,0-.31.7,1.07,1.07,0,0,0,.18.64,0.73,0.73,0,0,0,.63.25,1.35,1.35,0,0,0,.59-0.15,1.67,1.67,0,0,0,.5-0.36,1.61,1.61,0,0,0,.24-0.33,1,1,0,0,0,.14-0.37,0.8,0.8,0,0,1,0-.13,0.28,0.28,0,0,0,0,0V8.61C22.84,8.52,22.83,8.43,22.83,8.37Z" />
    <path d="M31.35,5.67a0.43,0.43,0,0,1-.14.37,0.56,0.56,0,0,1-.38.13A0.59,0.59,0,0,1,30.42,6c-0.12-.11-0.24-0.24-0.36-0.37a3.18,3.18,0,0,0-.39-0.37,0.76,0.76,0,0,0-.49-0.17,1.5,1.5,0,0,0-.9.26,2,2,0,0,0-.6.66,3,3,0,0,0-.33.89,4.75,4.75,0,0,0-.1.95,4,4,0,0,0,.13,1,2.73,2.73,0,0,0,.39.87,2.09,2.09,0,0,0,.67.62,1.88,1.88,0,0,0,1,.24h0.31a1.57,1.57,0,0,0,.69-0.15,3.11,3.11,0,0,0,.6-0.38l0.13-.1,0.13-.09a0.21,0.21,0,0,1,.08.17,0.41,0.41,0,0,1-.1.25l-0.17.22a1.32,1.32,0,0,1-.23.23L30.54,11l-0.35.2-0.3.13a3,3,0,0,1-.91.15,2.63,2.63,0,0,1-1.18-.26,2.66,2.66,0,0,1-.89-0.7,3.1,3.1,0,0,1-.55-1,3.87,3.87,0,0,1-.19-1.22,3.86,3.86,0,0,1,.21-1.36A3.51,3.51,0,0,1,27,5.75a3.22,3.22,0,0,1,1-.79,3,3,0,0,1,1.32-.29,4.94,4.94,0,0,1,.57,0,3,3,0,0,1,.65.15,1.67,1.67,0,0,1,.53.31A0.64,0.64,0,0,1,31.35,5.67Z" />
    <path d="M39.9,11.13a0.12,0.12,0,0,1-.14.11h-0.2a4.06,4.06,0,0,1-.63,0,3.85,3.85,0,0,0-.62,0,5.37,5.37,0,0,0-.73,0,5.51,5.51,0,0,1-.73,0h-0.1a0.77,0.77,0,0,1-.21,0,0.14,0.14,0,0,1-.1-0.15,0.16,0.16,0,0,1,.13-0.18l0.29-.06a1.17,1.17,0,0,0,.29-0.08,0.22,0.22,0,0,0,.13-0.22,0.54,0.54,0,0,0-.12-0.31,3.51,3.51,0,0,0-.29-0.35l-0.35-.35-0.31-.31L36,8.9l-0.39-.46Q35.38,8.2,35.19,8a0.94,0.94,0,0,0-.27-0.22,0.5,0.5,0,0,1-.26,0c-0.05,0-.08,0-0.08.15V9.84s0,0.11,0,.18,0,0.15,0,.23a1.27,1.27,0,0,0,0,.23,0.46,0.46,0,0,0,.07.17,0.39,0.39,0,0,0,.24.15l0.28,0a1,1,0,0,1,.24,0,0.16,0.16,0,0,1,.1.18,0.14,0.14,0,0,1-.13.16l-0.23,0a2.85,2.85,0,0,1-.53,0,2.85,2.85,0,0,0-.54,0,3.56,3.56,0,0,0-.64.06,3.66,3.66,0,0,1-.64.06H32.8a1.24,1.24,0,0,1-.29,0A0.18,0.18,0,0,1,32.37,11a0.13,0.13,0,0,1,.1-0.13l0.24-.06L33,10.77a0.64,0.64,0,0,0,.27-0.18,1,1,0,0,0,.18-0.47,4.48,4.48,0,0,0,.06-0.69q0-.37,0-0.74c0-.24,0-0.45,0-0.62V1.78a0.61,0.61,0,0,0-.17-0.44A1.39,1.39,0,0,0,33,1.06l-0.32-.15c-0.09,0-.11-0.06,0-0.08L33,0.69l0.36-.15,0.43-.21L34.42,0a0.09,0.09,0,0,1,.1,0,0.14,0.14,0,0,1,.06.09,1.11,1.11,0,0,1,0,.13,1.11,1.11,0,0,1,0,.11q0,1.79,0,3.51t0,3.51a0.09,0.09,0,0,0,.1.1A0.79,0.79,0,0,0,35,7.35c0.15-.08.31-0.19,0.49-0.31s0.36-.27.54-0.42l0.5-.44,0.37-.37a0.5,0.5,0,0,0,.15-0.22,0.2,0.2,0,0,0-.13-0.19,1.49,1.49,0,0,0-.29-0.11l-0.29-.1A0.19,0.19,0,0,1,36.23,5a0.14,0.14,0,0,1,.13-0.14l0.22,0,0.93,0c0.31,0,.62,0,0.93,0l0.36,0,0.36,0H39.3L39.4,5a0.25,0.25,0,0,1-.13.22,0.84,0.84,0,0,1-.25.11,3.11,3.11,0,0,0-.8.25A5.6,5.6,0,0,0,37.5,6a7,7,0,0,0-.67.5L36.18,7l-0.12.09a0.25,0.25,0,0,0-.09.12L36,7.33l0.08,0.09h0q0.28,0.28.54,0.57l0.53,0.58q0.28,0.31.57,0.66t0.61,0.69a5.42,5.42,0,0,0,.64.57,1.84,1.84,0,0,0,.64.33,0.43,0.43,0,0,1,.2.09A0.26,0.26,0,0,1,39.9,11.13Z" />
    <path d="M44.87,11.65c-0.07,0-.11-0.06-0.13-0.17a2.66,2.66,0,0,1,0-.41c0-.16,0-0.32,0-0.49s0-.3,0-0.41,0-.46,0-0.66,0-.42,0-0.66a0.26,0.26,0,0,1,.06-0.17,0.16,0.16,0,0,1,.1,0h0.2a0.17,0.17,0,0,1,.15.12,1.55,1.55,0,0,1,.1.29l0.09,0.37a1.65,1.65,0,0,0,.12.34,1.84,1.84,0,0,0,.78.85,2.24,2.24,0,0,0,1.88.17,1.81,1.81,0,0,0,.62-0.38,1.74,1.74,0,0,0,.41-0.6A2,2,0,0,0,49.48,9a1.71,1.71,0,0,0-.36-1.11,3.79,3.79,0,0,0-.89-0.8,11.16,11.16,0,0,0-1.16-.66,8,8,0,0,1-1.16-.69A3.79,3.79,0,0,1,45,4.87a2.16,2.16,0,0,1-.36-1.27,2.8,2.8,0,0,1,.24-1.2,2.57,2.57,0,0,1,.66-0.88,2.94,2.94,0,0,1,1-.55,3.76,3.76,0,0,1,1.2-.19,1.72,1.72,0,0,1,.66.15,4.6,4.6,0,0,1,.62.31,0.18,0.18,0,0,0,.23,0A0.81,0.81,0,0,0,49.42,1,1.44,1.44,0,0,1,49.6.77,0.39,0.39,0,0,1,49.91.64,0.14,0.14,0,0,1,50,.78a1.74,1.74,0,0,1,0,.34,3.91,3.91,0,0,1,0,.41c0,0.14,0,.26,0,0.36q0,0.73,0,1.46a0.36,0.36,0,0,1-.07.17,0.14,0.14,0,0,1-.1,0H49.61a0.17,0.17,0,0,1-.14-0.13,1.82,1.82,0,0,1-.1-0.3l-0.08-.36a1.1,1.1,0,0,0-.13-0.33,1.82,1.82,0,0,0-.66-0.83,1.56,1.56,0,0,0-.88-0.29,2.15,2.15,0,0,0-.69.11,1.74,1.74,0,0,0-.57.32,1.47,1.47,0,0,0-.39.52,1.65,1.65,0,0,0-.14.69,1.52,1.52,0,0,0,.38,1,4.08,4.08,0,0,0,.95.78,12.23,12.23,0,0,0,1.18.64,9.67,9.67,0,0,1,1.1.6,2.73,2.73,0,0,1,.92,1,3,3,0,0,1,.34,1.34,3.46,3.46,0,0,1-.25,1.35,2.66,2.66,0,0,1-.69,1,3,3,0,0,1-1,.59,4.45,4.45,0,0,1-1.34.22,1.74,1.74,0,0,1-.5-0.07l-0.43-.15-0.38-.15A0.89,0.89,0,0,0,45.74,11a0.3,0.3,0,0,0-.25.09,1.5,1.5,0,0,0-.15.21,1,1,0,0,1-.17.21A0.44,0.44,0,0,1,44.87,11.65Z" />
    <path d="M57.17,6.93a0.57,0.57,0,0,1-.06.28L57,7.23H53.33l-0.14,0s0,0-.06.11a1.94,1.94,0,0,0,0,.22V7.71a5.52,5.52,0,0,0,.13,1.09,2.68,2.68,0,0,0,.38.91,1.93,1.93,0,0,0,.7.62,2.64,2.64,0,0,0,1.55.19,1.61,1.61,0,0,0,.38-0.13,2.3,2.3,0,0,0,.35-0.21L57,9.91h0.11a0.08,0.08,0,0,1,.1.08,0.35,0.35,0,0,1-.08.18L57,10.39l-0.2.21-0.16.14a3.11,3.11,0,0,1-.84.53,2.62,2.62,0,0,1-1,.16,2.76,2.76,0,0,1-1.16-.23,2.41,2.41,0,0,1-.85-0.64,2.87,2.87,0,0,1-.53-1A4,4,0,0,1,52,8.41a5.88,5.88,0,0,1,.13-1.33,3.89,3.89,0,0,1,.46-1.21A2.68,2.68,0,0,1,53.48,5a2.26,2.26,0,0,1,1.27-.34A2.74,2.74,0,0,1,56.18,5,2,2,0,0,1,57,6.2a3.54,3.54,0,0,1,.09.36A3.15,3.15,0,0,1,57.17,6.93ZM56,6.24a1.09,1.09,0,0,0-.1-0.46,1.39,1.39,0,0,0-.27-0.39,1.31,1.31,0,0,0-.38-0.27A1.08,1.08,0,0,0,54.8,5a1.22,1.22,0,0,0-.57.15,1.78,1.78,0,0,0-.5.38,1.86,1.86,0,0,0-.34.54,1.53,1.53,0,0,0-.13.59,0.09,0.09,0,0,0,.09.08l0.21,0h1c0.17,0,.38,0,0.64,0l0.31,0a0.91,0.91,0,0,0,.25-0.06,0.34,0.34,0,0,0,.17-0.15A0.59,0.59,0,0,0,56,6.24Z" />
    <path d="M64.19,10.16l0,0.13a1.26,1.26,0,0,1-.48.72,1.34,1.34,0,0,1-.83.27A0.93,0.93,0,0,1,62.13,11a1.71,1.71,0,0,1-.38-0.71,2.4,2.4,0,0,1-.38.41,3.45,3.45,0,0,1-.51.36,2.79,2.79,0,0,1-.58.25,2,2,0,0,1-.58.09,1.13,1.13,0,0,1-1-.41,1.79,1.79,0,0,1-.29-1,1.05,1.05,0,0,1,.16-0.57A2,2,0,0,1,59,8.89a3.07,3.07,0,0,1,.53-0.36A5,5,0,0,1,60,8.27L60.94,8q0.4-.13.9-0.26V6.62a1.8,1.8,0,0,0-.22-0.94,0.91,0.91,0,0,0-.85-0.36,1.33,1.33,0,0,0-.67.15,1.29,1.29,0,0,0-.6.75l-0.08.29a0.72,0.72,0,0,1-.29.38,0.85,0.85,0,0,1-.49.15,0.16,0.16,0,0,1-.18-0.13,1.2,1.2,0,0,1,0-.24A1.13,1.13,0,0,1,58.71,6a3.7,3.7,0,0,1,.69-0.66,3.86,3.86,0,0,1,.88-0.5,2.3,2.3,0,0,1,.87-0.2l0.25,0,0.3,0L62,4.75l0.22,0.08a1,1,0,0,1,.57.62,3.09,3.09,0,0,1,.11.86q0,0.53,0,1.13c0,0.4,0,.77,0,1.13,0,0.08,0,.21,0,0.37s0,0.33,0,.5,0,0.34,0,.49a0.74,0.74,0,0,0,.08.32,0.29,0.29,0,0,0,.17.13,0.74,0.74,0,0,0,.22,0,0.57,0.57,0,0,0,.25,0,0.72,0.72,0,0,0,.17-0.11l0.13-.12A0.25,0.25,0,0,1,64,10.07C64.14,10,64.19,10.07,64.19,10.16Zm-2.36-1.8a1.35,1.35,0,0,0,0-.18l-0.29.08-0.34.11-0.34.12-0.29.11a2.33,2.33,0,0,0-.69.41,0.87,0.87,0,0,0-.31.7,1.07,1.07,0,0,0,.18.64,0.73,0.73,0,0,0,.63.25A1.35,1.35,0,0,0,61,10.47a1.67,1.67,0,0,0,.5-0.36,1.61,1.61,0,0,0,.24-0.33,1,1,0,0,0,.14-0.37,0.79,0.79,0,0,1,0-.13,0.27,0.27,0,0,0,0,0V8.61C61.84,8.52,61.84,8.43,61.83,8.37Z" />
</svg>
