<svg id="stardust" xmlns="http://www.w3.org/2000/svg" viewBox="0 0 55.83 11.45">
    <title>Stardust</title>
    <path d="M2.9,40.21a1.32,1.32,0,0,1-.41,1,1.45,1.45,0,0,1-1,.38,1.47,1.47,0,0,1-1-.4,1.37,1.37,0,0,1-.42-1A1.41,1.41,0,0,1,.44,39.1a1.5,1.5,0,0,1,1.07-.42,1.24,1.24,0,0,1,1,.46A1.69,1.69,0,0,1,2.9,40.21Z" transform="translate(0 -33.8)" fill="#403227"/><path d="M5.52,45.25q-0.1,0-.13-0.18a2.66,2.66,0,0,1,0-.41c0-.16,0-0.32,0-0.49s0-.3,0-0.41,0-.46,0-0.66,0-.42,0-0.66a0.26,0.26,0,0,1,.06-0.17,0.16,0.16,0,0,1,.1,0h0.2a0.17,0.17,0,0,1,.15.12,1.59,1.59,0,0,1,.1.29l0.09,0.37a1.67,1.67,0,0,0,.12.34,1.83,1.83,0,0,0,.78.85,2.24,2.24,0,0,0,1.88.17A1.8,1.8,0,0,0,9.57,44a1.75,1.75,0,0,0,.41-0.6,2.06,2.06,0,0,0,.15-0.8,1.72,1.72,0,0,0-.36-1.11,3.78,3.78,0,0,0-.89-0.8,10.81,10.81,0,0,0-1.16-.66,8.11,8.11,0,0,1-1.16-.69,3.79,3.79,0,0,1-.89-0.9,2.16,2.16,0,0,1-.36-1.27A2.8,2.8,0,0,1,5.57,36a2.56,2.56,0,0,1,.67-0.88,3,3,0,0,1,1-.55,3.79,3.79,0,0,1,1.2-.19,1.73,1.73,0,0,1,.66.15,4.86,4.86,0,0,1,.62.31,0.18,0.18,0,0,0,.23,0,0.84,0.84,0,0,0,.15-0.22,1.45,1.45,0,0,1,.17-0.27,0.39,0.39,0,0,1,.32-0.12,0.14,0.14,0,0,1,.13.14,1.74,1.74,0,0,1,0,.34,3.91,3.91,0,0,1,0,.41c0,0.14,0,.26,0,0.36,0,0.48,0,1,0,1.46a0.35,0.35,0,0,1-.07.17,0.13,0.13,0,0,1-.1,0H10.25A0.17,0.17,0,0,1,10.11,37a1.81,1.81,0,0,1-.1-0.3l-0.08-.36A1.12,1.12,0,0,0,9.8,36a1.83,1.83,0,0,0-.66-0.83,1.56,1.56,0,0,0-.88-0.29,2.13,2.13,0,0,0-.69.11,1.71,1.71,0,0,0-.57.32,1.47,1.47,0,0,0-.39.52,1.64,1.64,0,0,0-.14.69,1.51,1.51,0,0,0,.38,1,4.09,4.09,0,0,0,.95.78A12.47,12.47,0,0,0,9,39a9.37,9.37,0,0,1,1.1.6,2.73,2.73,0,0,1,.92,1,3,3,0,0,1,.34,1.34,3.46,3.46,0,0,1-.25,1.35,2.66,2.66,0,0,1-.69,1,3,3,0,0,1-1,.6A4.51,4.51,0,0,1,8,45.08,1.71,1.71,0,0,1,7.53,45l-0.43-.15-0.38-.15a0.89,0.89,0,0,0-.33-0.07,0.3,0.3,0,0,0-.25.09,1.45,1.45,0,0,0-.15.21,1,1,0,0,1-.17.21A0.44,0.44,0,0,1,5.52,45.25Z" transform="translate(0 -33.8)" fill="#403227"/><path d="M16.61,38.78a0.38,0.38,0,0,1,0,.14,0.79,0.79,0,0,0,0,.14,0.27,0.27,0,0,1-.21.08H14.77a0.36,0.36,0,0,0-.25.08,0.06,0.06,0,0,0-.07.06,0.51,0.51,0,0,0-.06.25c0,0.32,0,.65,0,1s0,0.68,0,1,0,0.56,0,.84,0,0.56,0,.84a1,1,0,0,0,.27.71,1,1,0,0,0,.72.27A1.07,1.07,0,0,0,15.94,44l0.5-.32a0.13,0.13,0,0,1,.15.14,0.6,0.6,0,0,1-.15.4,1.9,1.9,0,0,1-.31.3,1.79,1.79,0,0,1-.61.29,2.64,2.64,0,0,1-.68.09,1.44,1.44,0,0,1-1.23-.49,2.13,2.13,0,0,1-.36-1.3q0-.88,0-1.71t0-1.71a0.33,0.33,0,0,0-.15-0.33,0.81,0.81,0,0,0-.33-0.08H12.48a0.13,0.13,0,0,1-.15-0.13,0.12,0.12,0,0,1,0,0,0.09,0.09,0,0,0,0,0L12.51,39l0.27-.15,0.3-.2a2,2,0,0,0,.28-0.23l0.27-.25L13.79,38l0.15-.2a3.65,3.65,0,0,0,.21-0.32,0.19,0.19,0,0,1,.18-0.12,0.09,0.09,0,0,1,.1.08,1.33,1.33,0,0,0,0,.15,0.47,0.47,0,0,0,0,.14v0.5a0.91,0.91,0,0,0,0,.14l0,0.11,0.29,0h1.48a0.53,0.53,0,0,1,.23,0,0.15,0.15,0,0,1,.11.11A0.66,0.66,0,0,1,16.61,38.78Z" transform="translate(0 -33.8)" fill="#403227"/><path d="M23.47,43.76a1.1,1.1,0,0,1,0,.13,1.26,1.26,0,0,1-.48.72,1.34,1.34,0,0,1-.83.27,0.94,0.94,0,0,1-.73-0.29A1.7,1.7,0,0,1,21,43.88a2.32,2.32,0,0,1-.38.41,3.41,3.41,0,0,1-.51.36,2.76,2.76,0,0,1-.58.25A2,2,0,0,1,19,45a1.13,1.13,0,0,1-1-.41,1.79,1.79,0,0,1-.29-1A1,1,0,0,1,17.85,43a2,2,0,0,1,.41-0.47,3,3,0,0,1,.53-0.36,5.18,5.18,0,0,1,.54-0.25l0.89-.31q0.4-.13.9-0.26V40.22a1.8,1.8,0,0,0-.22-0.94,0.91,0.91,0,0,0-.85-0.36,1.33,1.33,0,0,0-.67.15,1.27,1.27,0,0,0-.4.35,1.31,1.31,0,0,0-.2.4l-0.08.29a0.72,0.72,0,0,1-.29.38,0.85,0.85,0,0,1-.49.15,0.16,0.16,0,0,1-.18-0.13,1.22,1.22,0,0,1,0-.25A1.14,1.14,0,0,1,18,39.57a3.7,3.7,0,0,1,.69-0.66,3.87,3.87,0,0,1,.88-0.5,2.31,2.31,0,0,1,.87-0.2l0.25,0,0.3,0,0.29,0.07,0.22,0.08a1,1,0,0,1,.57.62,3.06,3.06,0,0,1,.11.86q0,0.53,0,1.13c0,0.4,0,.77,0,1.13,0,0.08,0,.21,0,0.37s0,0.33,0,.5,0,0.34,0,.49a0.74,0.74,0,0,0,.08.31,0.28,0.28,0,0,0,.17.13,0.75,0.75,0,0,0,.22,0,0.55,0.55,0,0,0,.25,0A0.75,0.75,0,0,0,23,43.85l0.13-.12a0.23,0.23,0,0,1,.12-0.07C23.41,43.64,23.47,43.67,23.47,43.76ZM21.11,42a1.57,1.57,0,0,0,0-.18l-0.29.08L20.45,42l-0.34.13-0.29.1a2.32,2.32,0,0,0-.69.41,0.87,0.87,0,0,0-.32.7A1.08,1.08,0,0,0,19,44a0.73,0.73,0,0,0,.63.25,1.36,1.36,0,0,0,.6-0.15,1.67,1.67,0,0,0,.5-0.36A1.63,1.63,0,0,0,21,43.38,1,1,0,0,0,21.1,43a0.79,0.79,0,0,1,0-.13,0.27,0.27,0,0,0,0,0V42.21C21.12,42.12,21.11,42,21.11,42Z" transform="translate(0 -33.8)" fill="#403227"/><path d="M29.46,39.44a0.84,0.84,0,0,1-.06.3,0.46,0.46,0,0,1-.48.31,0.81,0.81,0,0,1-.42-0.18,0.33,0.33,0,0,1-.15-0.21l-0.08-.28a0.93,0.93,0,0,0-.11-0.25A0.28,0.28,0,0,0,27.92,39a1.5,1.5,0,0,0-.56.11,2,2,0,0,0-.48.27,1.34,1.34,0,0,0-.34.37,0.81,0.81,0,0,0-.13.42v3.4a0.92,0.92,0,0,0,0,.18,0.69,0.69,0,0,0,.15.38,0.74,0.74,0,0,0,.29.21,1.15,1.15,0,0,0,.37.08h0.4q0.13,0,.13.25a0.11,0.11,0,0,1-.08.12l-0.15,0a4.82,4.82,0,0,1-.69,0,4.8,4.8,0,0,0-.69,0,6.22,6.22,0,0,0-.78,0,6.22,6.22,0,0,1-.78,0,0.62,0.62,0,0,1-.2,0,0.18,0.18,0,0,1,0-.34l0.31-.07A1.25,1.25,0,0,0,25,44.28a0.42,0.42,0,0,0,.2-0.32,3.9,3.9,0,0,0,.07-0.56c0-.19,0-0.37,0-0.56,0-.36,0-0.7,0-1s0-.64,0-1c0-.12,0-0.25,0-0.38a1,1,0,0,0-.08-0.36,0.5,0.5,0,0,0-.17-0.25l-0.22-.14-0.2-.11a0.22,0.22,0,0,1-.11-0.17,0.23,0.23,0,0,1,.1-0.11l0.13-.07L25,39.09l0.27-.15,0.22-.15,0.25-.2L26,38.41a0.62,0.62,0,0,1,.22-0.09,0.07,0.07,0,0,1,.07,0l0.06,0a0.53,0.53,0,0,1,0,.17,2.18,2.18,0,0,1,0,.25v0.43a0.58,0.58,0,0,1,.2-0.2,3.61,3.61,0,0,1,.46-0.29,4.15,4.15,0,0,1,.62-0.27,2,2,0,0,1,.67-0.12,1.12,1.12,0,0,1,.51.1,1,1,0,0,1,.33.27,1,1,0,0,1,.17.36A1.58,1.58,0,0,1,29.46,39.44Z" transform="translate(0 -33.8)" fill="#403227"/><path d="M37.38,44.37a0.22,0.22,0,0,1-.07.15,1.09,1.09,0,0,1-.32.13l-0.6.17L35.77,45,35.38,45h-0.1a0.39,0.39,0,0,1-.07-0.25,1.44,1.44,0,0,1,0-.21,1.58,1.58,0,0,0,0-.21,1.23,1.23,0,0,0,0-.13,0.11,0.11,0,0,0-.08-0.1,1.14,1.14,0,0,0-.22.14l-0.22.15a7.12,7.12,0,0,1-.83.41,2,2,0,0,1-.72.13,2.59,2.59,0,0,1-1.11-.24,2.84,2.84,0,0,1-.89-0.64,3.08,3.08,0,0,1-.59-0.93A2.88,2.88,0,0,1,30.36,42a3.78,3.78,0,0,1,.25-1.38,3.44,3.44,0,0,1,.71-1.13,3.32,3.32,0,0,1,2.46-1l0.4,0,0.3,0.06,0.29,0.11,0.38,0.15a0.29,0.29,0,0,0,.08-0.15,1.08,1.08,0,0,0,0-.17c0-.36,0-0.73,0-1.09s0-.72,0-1.08c0-.19,0-0.37,0-0.55a4.32,4.32,0,0,0,0-.55,0.5,0.5,0,0,0-.14-0.37,1.49,1.49,0,0,0-.36-0.16l-0.25-.11a0.22,0.22,0,0,1-.16-0.19,0.21,0.21,0,0,1,.09-0.15,0.38,0.38,0,0,1,.17-0.09,5.6,5.6,0,0,0,.56-0.08l0.5-.12,0.38-.1,0.2,0a0.09,0.09,0,0,1,.08,0,0.19,0.19,0,0,1,0,.09v1.29q0,0.28,0,.57c0,0.19,0,.38,0,0.57q0,1.76,0,3.46t0,3.46v0.21c0,0.11,0,.24,0,0.39a0.51,0.51,0,0,0,.09.29,0.36,0.36,0,0,0,.27.08l0.24,0,0.25,0,0.14,0A0.12,0.12,0,0,1,37.38,44.37Zm-2.16-2.16q0-.52,0-1.11A4.52,4.52,0,0,0,35.12,40a1.83,1.83,0,0,0-.42-0.83,1.18,1.18,0,0,0-.92-0.33,2,2,0,0,0-1,.22,2.12,2.12,0,0,0-.69.59,2.51,2.51,0,0,0-.41.85,3.74,3.74,0,0,0-.13,1,3.3,3.3,0,0,0,.16,1,2.73,2.73,0,0,0,.46.87,2.11,2.11,0,0,0,.76.59,2.38,2.38,0,0,0,1,.22,0.91,0.91,0,0,0,.29-0.07L34.65,44,35,43.8a0.57,0.57,0,0,0,.2-0.19q0-.36,0-0.72T35.23,42.21Z" transform="translate(0 -33.8)" fill="#403227"/><path d="M38.26,38.74a0.16,0.16,0,0,1,.1-0.14l0.17,0H39.3l0.49-.05,0.49,0a0.14,0.14,0,0,1,.13.16c0,0.11,0,.18,0,0.23v2.24q0,0.42,0,.84t0,0.84a1.9,1.9,0,0,0,.26,1.07,1.09,1.09,0,0,0,1,.38,2.48,2.48,0,0,0,.52,0A1.29,1.29,0,0,0,42.56,44a1.72,1.72,0,0,0,.34-0.28,5.06,5.06,0,0,0,.34-0.41c0-.09,0-0.19,0-0.29s0-.21,0-0.35,0-.3,0-0.48v-2.1c0-.13,0-0.26,0-0.39a2.81,2.81,0,0,0-.06-0.39,0.29,0.29,0,0,0-.16-0.2,1,1,0,0,0-.29-0.1l-0.3,0a0.52,0.52,0,0,1-.18,0l-0.17,0a0.13,0.13,0,0,1-.1-0.13,0.19,0.19,0,0,1,.13-0.14l0.29,0,0.59,0,0.61,0,0.36,0a0.55,0.55,0,0,1,.36.08,0.57,0.57,0,0,1,.08.37q0,0.6,0,1.2c0,0.4,0,.8,0,1.21s0,0.78,0,1.18,0,0.78,0,1.18a0.52,0.52,0,0,0,.09.31,0.33,0.33,0,0,0,.29.13,2.47,2.47,0,0,0,.56-0.06h0.15a0.12,0.12,0,0,1,.08.14,0.17,0.17,0,0,1-.08.13l-0.14.09-0.23.08-0.45.14-0.47.14-0.28.08-0.1,0-0.16,0-0.18,0H43.32a0.12,0.12,0,0,1-.06-0.1,1.41,1.41,0,0,1,0-.2c0-.07,0-0.15,0-0.22s0-.12,0-0.15V44c0-.12,0-0.16-0.06-0.13l-0.45.39a4.18,4.18,0,0,1-.47.36,2.71,2.71,0,0,1-.52.27,1.61,1.61,0,0,1-.58.1H40.92a1.6,1.6,0,0,1-.84-0.2,1.41,1.41,0,0,1-.5-0.52,2.26,2.26,0,0,1-.25-0.74,5.12,5.12,0,0,1-.07-0.86q0-.76,0-1.5t0-1.5a1.27,1.27,0,0,0-.09-0.55A0.53,0.53,0,0,0,38.69,39l-0.13,0-0.14,0a0.21,0.21,0,0,1-.11-0.06A0.17,0.17,0,0,1,38.26,38.74Z" transform="translate(0 -33.8)" fill="#403227"/><path d="M50.64,43.11a1.84,1.84,0,0,1-.15.69,1.87,1.87,0,0,1-.81,1,2.48,2.48,0,0,1-1.22.29L48,45a3.65,3.65,0,0,1-.62-0.13,2,2,0,0,1-.53-0.24,0.43,0.43,0,0,1-.22-0.37V43.81c0-.1,0-0.21,0-0.31s0-.22,0-0.35a0.1,0.1,0,0,1,.08-0.08H46.8a0.13,0.13,0,0,1,.12.06,0.79,0.79,0,0,1,.06.13l0.23,0.5a2,2,0,0,0,.28.44,1.32,1.32,0,0,0,.38.31,1.25,1.25,0,0,0,1.35-.19,1.14,1.14,0,0,0,.31-0.84,0.85,0.85,0,0,0-.22-0.59,2.63,2.63,0,0,0-.56-0.46A7.37,7.37,0,0,0,48,42a4.34,4.34,0,0,1-.73-0.44A2.43,2.43,0,0,1,46.73,41a1.39,1.39,0,0,1-.22-0.8,2.13,2.13,0,0,1,.16-0.87,1.59,1.59,0,0,1,.44-0.59,1.84,1.84,0,0,1,.66-0.34,2.91,2.91,0,0,1,1.55,0,1.27,1.27,0,0,1,.63.35l0.1,0.12a0.27,0.27,0,0,1,0,.15c0,0.32,0,.62,0,0.91,0,0.06,0,.11,0,0.16a0.12,0.12,0,0,1-.13.08,0.26,0.26,0,0,1-.15-0.22,2.58,2.58,0,0,0-.22-0.48,1.76,1.76,0,0,0-.42-0.48,1.17,1.17,0,0,0-.76-0.22,0.73,0.73,0,0,0-.64.31,1.23,1.23,0,0,0-.22.73,0.79,0.79,0,0,0,.23.55,3,3,0,0,0,.59.47l0.76,0.46a6.76,6.76,0,0,1,.76.5,2.64,2.64,0,0,1,.59.61A1.32,1.32,0,0,1,50.64,43.11Z" transform="translate(0 -33.8)" fill="#403227"/><path d="M55.83,38.78a0.38,0.38,0,0,1,0,.14,0.79,0.79,0,0,0,0,.14,0.27,0.27,0,0,1-.21.08H54a0.36,0.36,0,0,0-.25.08,0.06,0.06,0,0,0-.07.06,0.51,0.51,0,0,0-.06.25c0,0.32,0,.65,0,1s0,0.68,0,1,0,0.56,0,.84,0,0.56,0,.84a1,1,0,0,0,.27.71,1,1,0,0,0,.72.27A1.07,1.07,0,0,0,55.17,44l0.5-.32a0.13,0.13,0,0,1,.15.14,0.6,0.6,0,0,1-.15.4,1.89,1.89,0,0,1-.31.3,1.79,1.79,0,0,1-.61.29,2.64,2.64,0,0,1-.68.09,1.44,1.44,0,0,1-1.23-.49,2.13,2.13,0,0,1-.36-1.3q0-.88,0-1.71t0-1.71a0.33,0.33,0,0,0-.15-0.33A0.81,0.81,0,0,0,52,39.3H51.7a0.13,0.13,0,0,1-.15-0.13,0.12,0.12,0,0,1,0,0,0.09,0.09,0,0,0,0,0L51.74,39,52,38.81l0.3-.2a2,2,0,0,0,.28-0.23l0.27-.25L53,38l0.15-.2a3.62,3.62,0,0,0,.21-0.32,0.19,0.19,0,0,1,.18-0.12,0.09,0.09,0,0,1,.1.08,1.33,1.33,0,0,0,0,.15,0.47,0.47,0,0,0,0,.14v0.5a0.92,0.92,0,0,0,0,.14l0,0.11,0.29,0h1.48a0.53,0.53,0,0,1,.23,0,0.15,0.15,0,0,1,.11.11A0.66,0.66,0,0,1,55.83,38.78Z" transform="translate(0 -33.8)" />
</svg>
